<svg xmlns="http://www.w3.org/2000/svg" version="1.1" xmlns:xlink="http://www.w3.org/1999/xlink" xmlns:svgjs="http://svgjs.dev/svgjs" width="2000" height="318" viewBox="0 0 2000 318"><g transform="matrix(1,0,0,1,-1.2120910951572341,0.748007999368042)"><svg viewBox="0 0 396 63" data-background-color="#dedede" preserveAspectRatio="xMidYMid meet" height="318" width="2000" xmlns="http://www.w3.org/2000/svg" xmlns:xlink="http://www.w3.org/1999/xlink"><g id="tight-bounds" transform="matrix(1,0,0,1,0.23999420304028263,-0.1481902640257431)"><svg viewBox="0 0 395.52 63.29637221877661" height="63.29637221877661" width="395.52"><g><svg viewBox="0 0 487.6299308151391 78.03702873657801" height="63.29637221877661" width="395.52"><g transform="matrix(1,0,0,1,92.10993081513917,9.210634789764171)"><svg viewBox="0 0 395.52 59.615759157049666" height="59.615759157049666" width="395.52"><g id="textblocktransform"><svg viewBox="0 0 395.52 59.615759157049666" height="59.615759157049666" width="395.52" id="textblock"><g><svg viewBox="0 0 395.52 59.615759157049666" height="59.615759157049666" width="395.52"><g transform="matrix(1,0,0,1,0,0)"><svg width="395.52" viewBox="0.6000000238418579 -37.150001525878906 249.09999084472656 37.55000305175781" height="59.615759157049666" data-palette-color="#111111"><path d="M0.6-36.15L29.13-36.15 29.13-30.63 18.25-30.63 18.25 0 11.53 0 11.53-30.63 0.6-30.63 0.6-36.15ZM39.22 0L33.05 0 33.05-37.15 39.22-37.15 39.22-22.88Q40.72-24.3 42.52-25.18 44.32-26.05 46.75-26.05L46.75-26.05Q48.85-26.05 50.47-25.34 52.1-24.63 53.19-23.34 54.27-22.05 54.84-20.26 55.4-18.48 55.4-16.32L55.4-16.32 55.4 0 49.22 0 49.22-16.32Q49.22-18.68 48.13-19.96 47.05-21.25 44.87-21.25L44.87-21.25Q43.27-21.25 41.87-20.53 40.47-19.8 39.22-18.55L39.22-18.55 39.22 0ZM61.87-25.65L68.05-25.65 68.05 0 61.87 0 61.87-25.65ZM68.97-33.13L68.97-33.13Q68.97-32.33 68.65-31.63 68.32-30.93 67.78-30.4 67.25-29.88 66.52-29.56 65.8-29.25 64.97-29.25L64.97-29.25Q64.17-29.25 63.46-29.56 62.75-29.88 62.22-30.4 61.7-30.93 61.38-31.63 61.07-32.33 61.07-33.13L61.07-33.13Q61.07-33.95 61.38-34.68 61.7-35.4 62.22-35.93 62.75-36.45 63.46-36.76 64.17-37.08 64.97-37.08L64.97-37.08Q65.8-37.08 66.52-36.76 67.25-36.45 67.78-35.93 68.32-35.4 68.65-34.68 68.97-33.95 68.97-33.13ZM81.19 0L75.02 0 75.02-25.65 78.79-25.65Q79.99-25.65 80.37-24.53L80.37-24.53 80.79-22.5Q81.57-23.3 82.43-23.95 83.29-24.6 84.25-25.08 85.22-25.55 86.32-25.8 87.42-26.05 88.72-26.05L88.72-26.05Q90.82-26.05 92.44-25.34 94.07-24.63 95.16-23.34 96.24-22.05 96.81-20.26 97.37-18.48 97.37-16.32L97.37-16.32 97.37 0 91.19 0 91.19-16.32Q91.19-18.68 90.11-19.96 89.02-21.25 86.84-21.25L86.84-21.25Q85.24-21.25 83.84-20.53 82.44-19.8 81.19-18.55L81.19-18.55 81.19 0ZM103.52-37.15L109.69-37.15 109.69-15.88 110.84-15.88Q111.47-15.88 111.81-16.05 112.17-16.23 112.56-16.7L112.56-16.7 118.94-24.58Q119.37-25.08 119.84-25.36 120.31-25.65 121.09-25.65L121.09-25.65 126.74-25.65 118.77-16.13Q118.34-15.6 117.89-15.16 117.44-14.73 116.92-14.4L116.92-14.4Q117.44-14.03 117.84-13.53 118.24-13.03 118.64-12.45L118.64-12.45 127.19 0 121.62 0Q120.89 0 120.39-0.25 119.89-0.5 119.49-1.1L119.49-1.1 112.97-10.83Q112.59-11.4 112.22-11.58 111.84-11.75 111.09-11.75L111.09-11.75 109.69-11.75 109.69 0 103.52 0 103.52-37.15ZM148.94-36.15L163.14 0 157.94 0Q157.06 0 156.5-0.44 155.94-0.88 155.69-1.53L155.69-1.53 152.99-8.9 138.01-8.9 135.31-1.53Q135.11-0.95 134.53-0.48 133.94 0 133.09 0L133.09 0 127.86 0 142.06-36.15 148.94-36.15ZM144.14-25.63L139.74-13.65 151.26-13.65 146.86-25.68Q146.56-26.48 146.2-27.56 145.84-28.65 145.49-29.93L145.49-29.93Q145.14-28.65 144.8-27.55 144.46-26.45 144.14-25.63L144.14-25.63ZM172.69 0L166.51 0 166.51-25.65 170.14-25.65Q171.09-25.65 171.46-25.3 171.84-24.95 171.96-24.1L171.96-24.1 172.34-21Q173.71-23.38 175.56-24.75 177.41-26.13 179.71-26.13L179.71-26.13Q181.61-26.13 182.86-25.25L182.86-25.25 182.06-20.63Q181.99-20.18 181.74-19.99 181.49-19.8 181.06-19.8L181.06-19.8Q180.69-19.8 180.03-19.98 179.39-20.15 178.31-20.15L178.31-20.15Q176.39-20.15 175.01-19.09 173.64-18.03 172.69-15.98L172.69-15.98 172.69 0ZM195.36 0.4L195.36 0.4Q192.03 0.4 190.23-1.49 188.43-3.38 188.43-6.7L188.43-6.7 188.43-21.03 185.83-21.03Q185.33-21.03 184.97-21.35 184.61-21.68 184.61-22.33L184.61-22.33 184.61-24.78 188.73-25.45 190.03-32.45Q190.13-32.95 190.5-33.23 190.86-33.5 191.41-33.5L191.41-33.5 194.61-33.5 194.61-25.43 201.36-25.43 201.36-21.03 194.61-21.03 194.61-7.13Q194.61-5.93 195.21-5.25 195.81-4.58 196.81-4.58L196.81-4.58Q197.38-4.58 197.77-4.71 198.16-4.85 198.45-5 198.73-5.15 198.96-5.29 199.18-5.43 199.41-5.43L199.41-5.43Q199.68-5.43 199.86-5.29 200.03-5.15 200.23-4.88L200.23-4.88 202.08-1.88Q200.73-0.75 198.98-0.18 197.23 0.4 195.36 0.4ZM224.21-36.15L238.41 0 233.21 0Q232.33 0 231.77-0.44 231.21-0.88 230.96-1.53L230.96-1.53 228.26-8.9 213.28-8.9 210.58-1.53Q210.38-0.95 209.79-0.48 209.21 0 208.36 0L208.36 0 203.13 0 217.33-36.15 224.21-36.15ZM219.41-25.63L215.01-13.65 226.53-13.65 222.13-25.68Q221.83-26.48 221.47-27.56 221.11-28.65 220.76-29.93L220.76-29.93Q220.41-28.65 220.07-27.55 219.73-26.45 219.41-25.63L219.41-25.63ZM249.7-36.15L249.7 0 242.95 0 242.95-36.15 249.7-36.15Z" opacity="1" transform="matrix(1,0,0,1,0,0)" fill="#ffffff" class="wordmark-text-0" data-fill-palette-color="primary" id="text-0"></path></svg></g></svg></g></svg></g></svg></g><g><svg viewBox="0 0 78.03608085637951 78.03702873657801" height="78.03702873657801" width="78.03608085637951"><g><svg xmlns="http://www.w3.org/2000/svg" xmlns:xlink="http://www.w3.org/1999/xlink" version="1.1" x="0" y="0" viewBox="5.412825107574463 5.195577621459961 79.76930236816406 79.77027130126953" enable-background="new 0 0 90 90" xml:space="preserve" height="78.03702873657801" width="78.03608085637951" class="icon-icon-0" data-fill-palette-color="accent" id="icon-0"><path d="M54.624 83.27c-10.792 1.801-22.246-1.411-30.727-8.272-8.062-6.522-13.088-16.744-12.728-27.17 0.349-10.096 5.499-20.182 14.078-25.707 8.769-5.647 20.783-5.62 29.498 0.129 8.154 5.379 12.661 15.857 9.907 25.391-1.424 4.931-4.572 9.475-9.052 12.082-4.663 2.714-10.561 3.268-15.615 1.341-4.544-1.733-8.418-5.448-9.851-10.154-1.47-4.826-0.243-10.416 3.327-14.027 3.452-3.492 8.998-4.743 13.484-2.567 4.259 2.065 6.884 7.148 5.307 11.755-0.85 2.483-2.859 4.611-5.423 5.317-2.69 0.741-5.774-0.221-7.439-2.493-1.629-2.222-1.495-5.503 0.597-7.389 1.054-0.95 2.599-1.429 3.984-1.015 0.41 0.122 2.233 0.566 2.058 1.209 0.087-0.652-1.341-0.82-1.755-0.934-1.29-0.356-2.733 0.004-3.719 0.904-1.739 1.586-1.995 4.459-0.597 6.34 1.417 1.906 4.102 2.721 6.348 1.971 2.287-0.765 3.875-3.013 4.245-5.344 0.746-4.703-3.812-8.759-8.323-8.569-4.774 0.201-8.548 4.373-9.111 8.971-1.056 8.621 8.8 14.488 16.466 12.536 8.546-2.177 12.86-12.372 10.766-20.465-2.34-9.045-11.891-14.664-20.877-14.543-9.785 0.131-18.28 7.23-21.955 16.011-4.038 9.649-2.194 21.17 4.201 29.364 6.485 8.309 16.93 13.113 27.352 13.664 5.766 0.305 11.749-0.537 17.004-3.006 4.955-2.328 8.907-6.258 11.976-10.734 6.303-9.194 8.662-20.938 6.135-31.824C79.845 17.355 61.052 3.689 41.936 5.329 23.164 6.939 7.154 22.991 5.551 41.756c-0.918 10.74 2.777 21.76 9.928 29.817 7.078 7.976 17.424 12.875 28.071 13.353 6.118 0.275 12.303-0.876 17.903-3.359-2.472 0.844-4.993 1.695-7.622 1.838 0.506-0.028 0.982-0.246 1.492-0.242-1.79-0.014-3.465 0.776-5.242 0.87 1.034-0.055 2.103-0.271 3.095-0.566 0.337-0.101 1.458-0.578 1.755-0.242-0.207-0.235-1.358 0.182-1.613 0.243-0.926 0.221-1.953 0.452-2.902 0.51 0.426-0.026 4.536-0.711 4.53-0.755 0.008 0.065-4.022 0.607-4.613 0.769 0.714-0.196 1.505-0.245 2.235-0.367 0.292-0.048 2.164-0.591 2.374-0.402C54.91 83.194 54.661 83.264 54.624 83.27 43.928 85.055 57.114 82.88 54.624 83.27z" fill="#ffffff" data-fill-palette-color="accent"></path></svg></g></svg></g></svg></g><defs></defs></svg><rect width="395.52" height="63.29637221877661" fill="none" stroke="none" visibility="hidden"></rect></g></svg></g></svg>